#!OML:ASF H:\Terrain\Patient Classification 1\Terrain2\Thursday\justin.ASF
:FULLY-SPECIFIED
:DEGREES
1884
root 31.2368 17.8533 8.41261 717.959 -16.5904 353.617
lowerback 4.71893 1.26444 4.64241
upperback 1.55857 1.93312 3.88517
thorax -1.02099 0.956214 1.29017
lowerneck -13.3685 -4.35561 -10.5789
upperneck 32.0974 -5.23653 4.92721
head 13.4886 -2.99036 2.95974
rclavicle 3.33461e-014 1.74931e-014
rhumerus -30.8705 -7.88249 -80.2129
rradius 30.2384
rwrist -10.2785
rhand -19.5049 12.5757
rfingers 7.12502
rthumb 6.81778 -17.2945
lclavicle 3.33461e-014 1.74931e-014
lhumerus -34.209 14.574 84.1399
lradius 19.503
lwrist -6.28581
lhand -17.9046 23.3497
lfingers 7.12502
lthumb 8.3624 53.1642
rfemur -4.83902 -8.25858 31.3437
rtibia 27.1636
rfoot -16.501 0.0758586
rtoes 21.1829
lfemur -14.4419 -6.70197 -11.1366
ltibia 43.8429
lfoot -12.6822 -0.452553
ltoes 0.835292
1885
root 31.2367 17.848 8.43404 718.237 -17.3008 353.096
lowerback 4.78661 1.19166 5.05488
upperback 1.56318 1.86039 4.09871
thorax -1.04819 0.918164 1.28369
lowerneck -13.3151 -4.52229 -10.8788
upperneck 31.7209 -5.40596 4.95368
head 13.3466 -3.09316 2.9871
rclavicle 2.60532e-014 4.6118e-014
rhumerus -30.5728 -7.75259 -80.1135
rradius 30.3192
rwrist -10.4103
rhand -18.961 12.9587
rfingers 7.12502
rthumb 7.34279 -16.8938
lclavicle 2.60532e-014 4.6118e-014
lhumerus -34.6473 15.8234 83.7899
lradius 18.686
lwrist -7.61141
lhand -17.557 23.7356
lfingers 7.12502
lthumb 8.69786 53.5364
rfemur -4.73291 -8.0071 31.8574
rtibia 26.9909
rfoot -16.3942 0.638969
rtoes 22.1782
lfemur -14.9195 -7.12231 -10.4605
ltibia 44.6835
lfoot -11.9944 -0.890994
ltoes 1.16716
1886
root 31.2336 17.8524 8.45849 718.463 -18.1023 352.808
lowerback 4.83342 1.21698 5.35743
upperback 1.62618 1.90644 4.14321
thorax -0.999761 0.941713 1.15903
lowerneck -13.3197 -4.83124 -11.2505
upperneck 31.2836 -5.82805 5.20384
head 13.2297 -3.28375 3.07328
rclavicle -4.34966e-014 -8.74653e-015
rhumerus -30.2345 -7.86884 -80.1165
rradius 30.4022
rwrist -10.3261
rhand -18.7463 12.7478
rfingers 7.12502
rthumb 7.55001 -17.0974
lclavicle -4.34966e-014 -8.74653e-015
lhumerus -34.7792 16.7227 83.4217
lradius 17.8225
lwrist -8.98953
lhand -15.9726 24.9964
lfingers 7.12502
lthumb 10.2265 54.7279
rfemur -4.56534 -7.81328 32.1195
rtibia 26.8791
rfoot -16.3301 1.13445
rtoes 20.7327
lfemur -15.3186 -7.47851 -10.0382
ltibia 45.4277
lfoot -11.4543 -1.22248
ltoes 0.144537
1887
root 31.2319 17.8633 8.48684 718.571 -19.0461 352.683
lowerback 4.9714 1.23704 5.52673
upperback 1.69319 1.9463 4.1076
thorax -0.999679 0.96172 1.02386
lowerneck -13.2811 -5.07406 -11.4009
upperneck 30.817 -6.18198 5.34804
head 13.0737 -3.43263 3.09022
rclavicle -4.83047e-014 1.66979e-014
rhumerus -30.0087 -7.67275 -80.3683
rradius 30.5769
rwrist -10.8036
rhand -19.3169 11.5493
rfingers 7.12502
rthumb 6.99926 -18.315
lclavicle -4.83047e-014 1.66979e-014
lhumerus -34.9545 17.5025 83.0294
lradius 16.9711
lwrist -9.90537
lhand -16.6269 24.7312
lfingers 7.12502
lthumb 9.59535 54.4927
rfemur -4.2749 -7.7653 32.1577
rtibia 26.7901
rfoot -16.3955 1.60783
rtoes 17.133
lfemur -15.4604 -8.07423 -9.80238
ltibia 46.0269
lfoot -11.2971 -1.70414
ltoes -2.41153
1888
root 31.2324 17.875 8.51075 718.69 -19.9363 352.653
lowerback 5.10692 1.22203 5.55852
upperback 1.6518 1.94112 4.08694
thorax -1.11644 0.956065 0.981295
lowerneck -12.7608 -5.22017 -11.5823
upperneck 30.1593 -6.43678 5.49168
head 12.7297 -3.54802 3.1339
rclavicle -4.95719e-015 9.54166e-015
rhumerus -29.9387 -7.3403 -80.6187
rradius 30.7609
rwrist -11.5832
rhand -20.1215 11.3208
rfingers 7.12502
rthumb 6.22253 -18.5678
lclavicle -4.95719e-015 9.54166e-015
lhumerus -35.456 18.1136 82.7058
lradius 16.3293
lwrist -10.8933
lhand -18.8946 23.1109
lfingers 7.12502
lthumb 7.40688 52.9613
rfemur -4.14159 -7.58671 32.1185
rtibia 26.7343
rfoot -16.5009 2.09955
rtoes 15.5108
lfemur -15.6734 -8.93291 -9.60164
ltibia 46.5104
lfoot -11.2945 -2.58932
ltoes -3.20827
1889
root 31.2324 17.8787 8.52957 718.894 -20.8444 352.777
lowerback 5.15873 1.26109 5.42876
upperback 1.55766 1.99624 4.01734
thorax -1.24357 0.980268 0.975573
lowerneck -12.0731 -5.35251 -11.801
upperneck 29.396 -6.68495 5.66278
head 12.317 -3.66342 3.19852
rclavicle -1.7667e-014 -7.63333e-014
rhumerus -29.7719 -7.4782 -80.6947
rradius 30.8062
rwrist -11.7983
rhand -20.3395 12.6178
rfingers 7.12502
rthumb 6.01206 -17.2769
lclavicle -1.7667e-014 -7.63333e-014
lhumerus -35.9877 18.2904 82.5801
lradius 16.0346
lwrist -11.6879
lhand -19.0945 23.2226
lfingers 7.12502
lthumb 7.21398 53.0796
rfemur -4.19344 -7.0695 31.973
rtibia 26.6116
rfoot -16.374 2.70112
rtoes 16.6618
lfemur -16.0962 -9.58464 -9.48858
ltibia 46.8846
lfoot -11.0662 -3.61847
ltoes -2.08484
1890
root 31.2318 17.8787 8.55424 719.06 -21.7848 352.832
lowerback 5.19941 1.26396 5.36231
upperback 1.56747 1.99791 3.96743
thorax -1.25667 0.980708 0.959947
lowerneck -11.8697 -5.45459 -11.8961
upperneck 28.8489 -6.8249 5.69895
head 12.0767 -3.72808 3.20196
rclavicle -1.10574e-014 -4.77083e-015
rhumerus -29.491 -7.58807 -80.7225
rradius 30.8442
rwrist -11.2826
rhand -19.9756 13.2768
rfingers 7.12502
rthumb 6.36333 -16.6076
lclavicle -1.10574e-014 -4.77083e-015
lhumerus -36.3971 18.2302 82.7469
lradius 15.9639
lwrist -11.359
lhand -19.3094 23.5927
lfingers 7.12502
lthumb 7.00652 53.4567
rfemur -4.09355 -6.54097 31.8615
rtibia 26.39
rfoot -16.1514 3.36103
rtoes 17.576
lfemur -16.3662 -10.1016 -9.3517
ltibia 47.166
lfoot -10.9569 -4.68638
ltoes -1.80937
